<mxfile host="Electron" modified="2024-04-25T08:38:33.096Z" agent="Mozilla/5.0 (Windows NT 10.0; Win64; x64) AppleWebKit/537.36 (KHTML, like Gecko) draw.io/22.1.2 Chrome/114.0.5735.289 Electron/25.9.4 Safari/537.36" etag="l-lmALc-l80bgefnHH2-" version="22.1.2" type="device" pages="2">
  <diagram name="Page-1" id="MxhbfR7q_ORPkruEdcOE">
    <mxGraphModel dx="1404" dy="806" grid="1" gridSize="10" guides="1" tooltips="1" connect="1" arrows="1" fold="1" page="1" pageScale="1" pageWidth="827" pageHeight="1169" math="0" shadow="0">
      <root>
        <mxCell id="0" />
        <mxCell id="1" parent="0" />
        <mxCell id="meXQsyKm9W74gT9eALie-11" value="&lt;p style=&quot;margin:0px;margin-top:4px;text-align:center;&quot;&gt;&lt;i&gt;BAHAN&lt;/i&gt;&lt;/p&gt;&lt;hr size=&quot;1&quot;&gt;&lt;p style=&quot;margin:0px;margin-left:4px;&quot;&gt;+ id: Int(11)&amp;nbsp;&lt;br&gt;+ nama : Varchar(255)&lt;/p&gt;&lt;p style=&quot;margin:0px;margin-left:4px;&quot;&gt;+ deskripsi : Varchar(255)&lt;/p&gt;&lt;p style=&quot;margin:0px;margin-left:4px;&quot;&gt;+ image_url : Varchar(255)&lt;/p&gt;&lt;hr size=&quot;1&quot;&gt;&lt;p style=&quot;border-color: var(--border-color); margin: 0px 0px 0px 4px;&quot;&gt;+ Create()&lt;/p&gt;&lt;p style=&quot;border-color: var(--border-color); margin: 0px 0px 0px 4px;&quot;&gt;+ Update()&lt;/p&gt;&lt;p style=&quot;border-color: var(--border-color); margin: 0px 0px 0px 4px;&quot;&gt;+ Delete()&lt;/p&gt;&lt;p style=&quot;border-color: var(--border-color); margin: 0px 0px 0px 4px;&quot;&gt;+ GetById()&lt;/p&gt;&lt;p style=&quot;border-color: var(--border-color); margin: 0px 0px 0px 4px;&quot;&gt;+ GetAll()&lt;br&gt;&lt;/p&gt;" style="verticalAlign=top;align=left;overflow=fill;fontSize=12;fontFamily=Helvetica;html=1;whiteSpace=wrap;" parent="1" vertex="1">
          <mxGeometry x="470" y="280" width="190" height="180" as="geometry" />
        </mxCell>
        <mxCell id="meXQsyKm9W74gT9eALie-12" value="&lt;p style=&quot;margin:0px;margin-top:4px;text-align:center;&quot;&gt;&lt;i&gt;PEMESANAN&lt;/i&gt;&lt;/p&gt;&lt;hr size=&quot;1&quot;&gt;&lt;p style=&quot;margin:0px;margin-left:4px;&quot;&gt;+ id : Int(11)&amp;nbsp;&lt;br&gt;+ nama : Varchar(255)&lt;/p&gt;&lt;p style=&quot;margin:0px;margin-left:4px;&quot;&gt;+ no_wa : Varchar(15)&lt;/p&gt;&lt;p style=&quot;margin:0px;margin-left:4px;&quot;&gt;+ id_bahan : Int(11)&lt;/p&gt;&lt;p style=&quot;margin:0px;margin-left:4px;&quot;&gt;+ id_pola : Int(11)&lt;/p&gt;&lt;p style=&quot;margin:0px;margin-left:4px;&quot;&gt;+ qty : Int(11)&lt;/p&gt;&lt;p style=&quot;margin:0px;margin-left:4px;&quot;&gt;+ tgl: date()&lt;/p&gt;&lt;p style=&quot;margin:0px;margin-left:4px;&quot;&gt;+ sisa_bayar : Int(11)&lt;/p&gt;&lt;p style=&quot;margin:0px;margin-left:4px;&quot;&gt;+ harga : Int(11)&lt;/p&gt;&lt;p style=&quot;margin:0px;margin-left:4px;&quot;&gt;+ isFinish : boolean()&lt;/p&gt;&lt;hr size=&quot;1&quot;&gt;&lt;p style=&quot;margin:0px;margin-left:4px;&quot;&gt;+ Create()&lt;/p&gt;&lt;p style=&quot;margin:0px;margin-left:4px;&quot;&gt;+ Update()&lt;/p&gt;&lt;p style=&quot;margin:0px;margin-left:4px;&quot;&gt;+ Delete()&lt;/p&gt;&lt;p style=&quot;margin:0px;margin-left:4px;&quot;&gt;+ GetById()&lt;/p&gt;&lt;p style=&quot;margin:0px;margin-left:4px;&quot;&gt;+ GetAll()&lt;/p&gt;" style="verticalAlign=top;align=left;overflow=fill;fontSize=12;fontFamily=Helvetica;html=1;whiteSpace=wrap;" parent="1" vertex="1">
          <mxGeometry x="160" y="270" width="190" height="260" as="geometry" />
        </mxCell>
        <mxCell id="meXQsyKm9W74gT9eALie-13" value="1" style="endArrow=open;html=1;endSize=12;startArrow=diamondThin;startSize=14;startFill=0;edgeStyle=orthogonalEdgeStyle;align=left;verticalAlign=bottom;rounded=0;entryX=0;entryY=0.25;entryDx=0;entryDy=0;exitX=0.995;exitY=0.327;exitDx=0;exitDy=0;exitPerimeter=0;" parent="1" source="meXQsyKm9W74gT9eALie-12" target="meXQsyKm9W74gT9eALie-11" edge="1">
          <mxGeometry x="-1" y="3" relative="1" as="geometry">
            <mxPoint x="460" y="470" as="sourcePoint" />
            <mxPoint x="490" y="520" as="targetPoint" />
          </mxGeometry>
        </mxCell>
        <mxCell id="meXQsyKm9W74gT9eALie-14" value="&lt;p style=&quot;margin:0px;margin-top:4px;text-align:center;&quot;&gt;&lt;i&gt;POLA&lt;/i&gt;&lt;/p&gt;&lt;hr size=&quot;1&quot;&gt;&lt;p style=&quot;margin:0px;margin-left:4px;&quot;&gt;+ id: Int(11)&amp;nbsp;&lt;br&gt;+ nama : Varchar(255)&lt;/p&gt;&lt;p style=&quot;margin:0px;margin-left:4px;&quot;&gt;+ image_url : Varchar(255)&lt;/p&gt;&lt;hr size=&quot;1&quot;&gt;&lt;p style=&quot;border-color: var(--border-color); margin: 0px 0px 0px 4px;&quot;&gt;+ Create()&lt;/p&gt;&lt;p style=&quot;border-color: var(--border-color); margin: 0px 0px 0px 4px;&quot;&gt;+ Update()&lt;/p&gt;&lt;p style=&quot;border-color: var(--border-color); margin: 0px 0px 0px 4px;&quot;&gt;+ Delete()&lt;/p&gt;&lt;p style=&quot;border-color: var(--border-color); margin: 0px 0px 0px 4px;&quot;&gt;+ GetById()&lt;/p&gt;&lt;p style=&quot;border-color: var(--border-color); margin: 0px 0px 0px 4px;&quot;&gt;+ GetAll()&lt;br&gt;&lt;/p&gt;" style="verticalAlign=top;align=left;overflow=fill;fontSize=12;fontFamily=Helvetica;html=1;whiteSpace=wrap;" parent="1" vertex="1">
          <mxGeometry x="470" y="480" width="190" height="170" as="geometry" />
        </mxCell>
        <mxCell id="meXQsyKm9W74gT9eALie-15" value="1" style="endArrow=open;html=1;endSize=12;startArrow=diamondThin;startSize=14;startFill=0;edgeStyle=orthogonalEdgeStyle;align=left;verticalAlign=bottom;rounded=0;entryX=0;entryY=0.25;entryDx=0;entryDy=0;exitX=1;exitY=0.5;exitDx=0;exitDy=0;" parent="1" source="meXQsyKm9W74gT9eALie-12" target="meXQsyKm9W74gT9eALie-14" edge="1">
          <mxGeometry x="-1" y="3" relative="1" as="geometry">
            <mxPoint x="350" y="422" as="sourcePoint" />
            <mxPoint x="471" y="390" as="targetPoint" />
          </mxGeometry>
        </mxCell>
        <mxCell id="meXQsyKm9W74gT9eALie-17" style="edgeStyle=orthogonalEdgeStyle;rounded=0;orthogonalLoop=1;jettySize=auto;html=1;entryX=0;entryY=0.5;entryDx=0;entryDy=0;endArrow=none;endFill=0;" parent="1" source="meXQsyKm9W74gT9eALie-16" target="meXQsyKm9W74gT9eALie-12" edge="1">
          <mxGeometry relative="1" as="geometry">
            <Array as="points">
              <mxPoint x="120" y="170" />
              <mxPoint x="120" y="400" />
            </Array>
          </mxGeometry>
        </mxCell>
        <mxCell id="meXQsyKm9W74gT9eALie-16" value="&lt;p style=&quot;margin:0px;margin-top:4px;text-align:center;&quot;&gt;&lt;i&gt;USER&lt;/i&gt;&lt;/p&gt;&lt;hr size=&quot;1&quot;&gt;&lt;p style=&quot;margin:0px;margin-left:4px;&quot;&gt;+ id: uuid()&lt;br&gt;+ nama : Varchar(255)&lt;/p&gt;&lt;p style=&quot;margin:0px;margin-left:4px;&quot;&gt;+ email: Varchar(255)&lt;/p&gt;&lt;p style=&quot;margin:0px;margin-left:4px;&quot;&gt;+ password: Varchar(255)&lt;/p&gt;&lt;hr size=&quot;1&quot;&gt;&lt;p style=&quot;border-color: var(--border-color); margin: 0px 0px 0px 4px;&quot;&gt;+ Login()&lt;/p&gt;&lt;p style=&quot;border-color: var(--border-color); margin: 0px 0px 0px 4px;&quot;&gt;+ Logout()&lt;/p&gt;" style="verticalAlign=top;align=left;overflow=fill;fontSize=12;fontFamily=Helvetica;html=1;whiteSpace=wrap;" parent="1" vertex="1">
          <mxGeometry x="160" y="100" width="190" height="140" as="geometry" />
        </mxCell>
        <mxCell id="meXQsyKm9W74gT9eALie-18" value="1" style="text;html=1;align=center;verticalAlign=middle;resizable=0;points=[];autosize=1;strokeColor=none;fillColor=none;" parent="1" vertex="1">
          <mxGeometry x="120" y="140" width="30" height="30" as="geometry" />
        </mxCell>
        <mxCell id="meXQsyKm9W74gT9eALie-19" value="0...*" style="text;html=1;align=center;verticalAlign=middle;resizable=0;points=[];autosize=1;strokeColor=none;fillColor=none;" parent="1" vertex="1">
          <mxGeometry x="115" y="410" width="40" height="30" as="geometry" />
        </mxCell>
        <mxCell id="meXQsyKm9W74gT9eALie-20" value="&lt;p style=&quot;margin:0px;margin-top:4px;text-align:center;&quot;&gt;&lt;i&gt;PRODUK&lt;/i&gt;&lt;/p&gt;&lt;hr size=&quot;1&quot;&gt;&lt;p style=&quot;margin:0px;margin-left:4px;&quot;&gt;+ id: Int(11)&amp;nbsp;&lt;br&gt;+ nama : Varchar(255)&lt;/p&gt;&lt;p style=&quot;margin:0px;margin-left:4px;&quot;&gt;+ harga: Varchar(255)&lt;/p&gt;&lt;p style=&quot;margin:0px;margin-left:4px;&quot;&gt;+ image_url : Varchar(255)&lt;/p&gt;&lt;p style=&quot;margin:0px;margin-left:4px;&quot;&gt;+ id_bahan&lt;/p&gt;&lt;hr size=&quot;1&quot;&gt;&lt;p style=&quot;border-color: var(--border-color); margin: 0px 0px 0px 4px;&quot;&gt;+ Create()&lt;/p&gt;&lt;p style=&quot;border-color: var(--border-color); margin: 0px 0px 0px 4px;&quot;&gt;+ Update()&lt;/p&gt;&lt;p style=&quot;border-color: var(--border-color); margin: 0px 0px 0px 4px;&quot;&gt;+ Delete()&lt;/p&gt;&lt;p style=&quot;border-color: var(--border-color); margin: 0px 0px 0px 4px;&quot;&gt;+ GetById()&lt;/p&gt;&lt;p style=&quot;border-color: var(--border-color); margin: 0px 0px 0px 4px;&quot;&gt;+ GetAll()&lt;br&gt;&lt;/p&gt;" style="verticalAlign=top;align=left;overflow=fill;fontSize=12;fontFamily=Helvetica;html=1;whiteSpace=wrap;" parent="1" vertex="1">
          <mxGeometry x="470" y="60" width="190" height="190" as="geometry" />
        </mxCell>
        <mxCell id="meXQsyKm9W74gT9eALie-21" value="1" style="endArrow=open;html=1;endSize=12;startArrow=diamondThin;startSize=14;startFill=0;edgeStyle=orthogonalEdgeStyle;align=left;verticalAlign=bottom;rounded=0;entryX=1;entryY=0.25;entryDx=0;entryDy=0;" parent="1" source="meXQsyKm9W74gT9eALie-20" target="meXQsyKm9W74gT9eALie-11" edge="1">
          <mxGeometry x="-0.8383" y="5" relative="1" as="geometry">
            <mxPoint x="700" y="150" as="sourcePoint" />
            <mxPoint x="827" y="240" as="targetPoint" />
            <Array as="points">
              <mxPoint x="700" y="125" />
              <mxPoint x="700" y="325" />
            </Array>
            <mxPoint as="offset" />
          </mxGeometry>
        </mxCell>
      </root>
    </mxGraphModel>
  </diagram>
  <diagram id="RB7NnFOl7AYcAHFLF-dl" name="Page-2">
    <mxGraphModel dx="1404" dy="806" grid="1" gridSize="10" guides="1" tooltips="1" connect="1" arrows="1" fold="1" page="1" pageScale="1" pageWidth="827" pageHeight="1169" math="0" shadow="0">
      <root>
        <mxCell id="0" />
        <mxCell id="1" parent="0" />
        <mxCell id="YZTxmnz4aFDgwLxgRaf_-4" style="edgeStyle=orthogonalEdgeStyle;rounded=0;orthogonalLoop=1;jettySize=auto;html=1;entryX=0.5;entryY=0;entryDx=0;entryDy=0;" parent="1" source="YZTxmnz4aFDgwLxgRaf_-2" target="YZTxmnz4aFDgwLxgRaf_-1" edge="1">
          <mxGeometry relative="1" as="geometry" />
        </mxCell>
        <mxCell id="YZTxmnz4aFDgwLxgRaf_-2" value="Start" style="strokeWidth=2;html=1;shape=mxgraph.flowchart.start_1;whiteSpace=wrap;" parent="1" vertex="1">
          <mxGeometry x="190" y="10" width="100" height="60" as="geometry" />
        </mxCell>
        <mxCell id="YZTxmnz4aFDgwLxgRaf_-5" value="" style="group" parent="1" vertex="1" connectable="0">
          <mxGeometry x="160" y="180" width="160" height="80" as="geometry" />
        </mxCell>
        <mxCell id="YZTxmnz4aFDgwLxgRaf_-1" value="&lt;p style=&quot;line-height: 0%;&quot;&gt;&lt;br&gt;&lt;/p&gt;" style="verticalLabelPosition=bottom;verticalAlign=top;html=1;shape=process;whiteSpace=wrap;rounded=1;size=0.14;arcSize=6;align=center;" parent="YZTxmnz4aFDgwLxgRaf_-5" vertex="1">
          <mxGeometry width="160" height="80" as="geometry" />
        </mxCell>
        <mxCell id="YZTxmnz4aFDgwLxgRaf_-3" value="&lt;i&gt;Business&lt;br&gt;Understanding&lt;/i&gt;" style="text;html=1;align=center;verticalAlign=middle;resizable=0;points=[];autosize=1;strokeColor=none;fillColor=none;" parent="YZTxmnz4aFDgwLxgRaf_-5" vertex="1">
          <mxGeometry x="30" y="20" width="100" height="40" as="geometry" />
        </mxCell>
        <mxCell id="YZTxmnz4aFDgwLxgRaf_-6" value="" style="group" parent="1" vertex="1" connectable="0">
          <mxGeometry x="160" y="280" width="160" height="80" as="geometry" />
        </mxCell>
        <mxCell id="YZTxmnz4aFDgwLxgRaf_-7" value="&lt;p style=&quot;line-height: 0%;&quot;&gt;&lt;br&gt;&lt;/p&gt;" style="verticalLabelPosition=bottom;verticalAlign=top;html=1;shape=process;whiteSpace=wrap;rounded=1;size=0.14;arcSize=6;align=center;" parent="YZTxmnz4aFDgwLxgRaf_-6" vertex="1">
          <mxGeometry width="160" height="80" as="geometry" />
        </mxCell>
        <mxCell id="YZTxmnz4aFDgwLxgRaf_-8" value="&lt;i&gt;Data&lt;br&gt;Understanding&lt;/i&gt;" style="text;html=1;align=center;verticalAlign=middle;resizable=0;points=[];autosize=1;strokeColor=none;fillColor=none;" parent="YZTxmnz4aFDgwLxgRaf_-6" vertex="1">
          <mxGeometry x="30" y="20" width="100" height="40" as="geometry" />
        </mxCell>
        <mxCell id="YZTxmnz4aFDgwLxgRaf_-9" style="edgeStyle=orthogonalEdgeStyle;rounded=0;orthogonalLoop=1;jettySize=auto;html=1;entryX=0.5;entryY=0;entryDx=0;entryDy=0;" parent="1" source="YZTxmnz4aFDgwLxgRaf_-1" target="YZTxmnz4aFDgwLxgRaf_-7" edge="1">
          <mxGeometry relative="1" as="geometry" />
        </mxCell>
        <mxCell id="YZTxmnz4aFDgwLxgRaf_-10" value="" style="group" parent="1" vertex="1" connectable="0">
          <mxGeometry x="160" y="390" width="160" height="80" as="geometry" />
        </mxCell>
        <mxCell id="YZTxmnz4aFDgwLxgRaf_-11" value="&lt;p style=&quot;line-height: 0%;&quot;&gt;&lt;br&gt;&lt;/p&gt;" style="verticalLabelPosition=bottom;verticalAlign=top;html=1;shape=process;whiteSpace=wrap;rounded=1;size=0.14;arcSize=6;align=center;" parent="YZTxmnz4aFDgwLxgRaf_-10" vertex="1">
          <mxGeometry width="160" height="80" as="geometry" />
        </mxCell>
        <mxCell id="YZTxmnz4aFDgwLxgRaf_-12" value="&lt;i&gt;Data&lt;br&gt;Preparation&lt;br&gt;&lt;/i&gt;" style="text;html=1;align=center;verticalAlign=middle;resizable=0;points=[];autosize=1;strokeColor=none;fillColor=none;" parent="YZTxmnz4aFDgwLxgRaf_-10" vertex="1">
          <mxGeometry x="35" y="20" width="90" height="40" as="geometry" />
        </mxCell>
        <mxCell id="YZTxmnz4aFDgwLxgRaf_-13" value="" style="group" parent="1" vertex="1" connectable="0">
          <mxGeometry x="160" y="490" width="160" height="80" as="geometry" />
        </mxCell>
        <mxCell id="YZTxmnz4aFDgwLxgRaf_-14" value="&lt;p style=&quot;line-height: 0%;&quot;&gt;&lt;br&gt;&lt;/p&gt;" style="verticalLabelPosition=bottom;verticalAlign=top;html=1;shape=process;whiteSpace=wrap;rounded=1;size=0.14;arcSize=6;align=center;" parent="YZTxmnz4aFDgwLxgRaf_-13" vertex="1">
          <mxGeometry width="160" height="80" as="geometry" />
        </mxCell>
        <mxCell id="YZTxmnz4aFDgwLxgRaf_-15" value="&lt;i&gt;Modeling&lt;br&gt;&lt;/i&gt;" style="text;html=1;align=center;verticalAlign=middle;resizable=0;points=[];autosize=1;strokeColor=none;fillColor=none;" parent="YZTxmnz4aFDgwLxgRaf_-13" vertex="1">
          <mxGeometry x="45" y="25" width="70" height="30" as="geometry" />
        </mxCell>
        <mxCell id="YZTxmnz4aFDgwLxgRaf_-16" value="" style="group" parent="1" vertex="1" connectable="0">
          <mxGeometry x="160" y="590" width="160" height="80" as="geometry" />
        </mxCell>
        <mxCell id="YZTxmnz4aFDgwLxgRaf_-17" value="&lt;p style=&quot;line-height: 0%;&quot;&gt;&lt;br&gt;&lt;/p&gt;" style="verticalLabelPosition=bottom;verticalAlign=top;html=1;shape=process;whiteSpace=wrap;rounded=1;size=0.14;arcSize=6;align=center;" parent="YZTxmnz4aFDgwLxgRaf_-16" vertex="1">
          <mxGeometry width="160" height="80" as="geometry" />
        </mxCell>
        <mxCell id="YZTxmnz4aFDgwLxgRaf_-18" value="&lt;i&gt;Evaluation&lt;br&gt;&lt;/i&gt;" style="text;html=1;align=center;verticalAlign=middle;resizable=0;points=[];autosize=1;strokeColor=none;fillColor=none;" parent="YZTxmnz4aFDgwLxgRaf_-16" vertex="1">
          <mxGeometry x="40" y="25" width="80" height="30" as="geometry" />
        </mxCell>
        <mxCell id="YZTxmnz4aFDgwLxgRaf_-19" value="" style="group" parent="1" vertex="1" connectable="0">
          <mxGeometry x="160" y="690" width="160" height="80" as="geometry" />
        </mxCell>
        <mxCell id="YZTxmnz4aFDgwLxgRaf_-20" value="&lt;p style=&quot;line-height: 0%;&quot;&gt;&lt;br&gt;&lt;/p&gt;" style="verticalLabelPosition=bottom;verticalAlign=top;html=1;shape=process;whiteSpace=wrap;rounded=1;size=0.14;arcSize=6;align=center;" parent="YZTxmnz4aFDgwLxgRaf_-19" vertex="1">
          <mxGeometry width="160" height="80" as="geometry" />
        </mxCell>
        <mxCell id="YZTxmnz4aFDgwLxgRaf_-21" value="&lt;i&gt;Deployment&lt;br&gt;&lt;/i&gt;" style="text;html=1;align=center;verticalAlign=middle;resizable=0;points=[];autosize=1;strokeColor=none;fillColor=none;" parent="YZTxmnz4aFDgwLxgRaf_-19" vertex="1">
          <mxGeometry x="35" y="25" width="90" height="30" as="geometry" />
        </mxCell>
        <mxCell id="YZTxmnz4aFDgwLxgRaf_-22" value="End" style="strokeWidth=2;html=1;shape=mxgraph.flowchart.start_1;whiteSpace=wrap;" parent="1" vertex="1">
          <mxGeometry x="190" y="790" width="100" height="60" as="geometry" />
        </mxCell>
        <mxCell id="YZTxmnz4aFDgwLxgRaf_-23" style="edgeStyle=orthogonalEdgeStyle;rounded=0;orthogonalLoop=1;jettySize=auto;html=1;entryX=0.5;entryY=0;entryDx=0;entryDy=0;" parent="1" source="YZTxmnz4aFDgwLxgRaf_-7" target="YZTxmnz4aFDgwLxgRaf_-11" edge="1">
          <mxGeometry relative="1" as="geometry" />
        </mxCell>
        <mxCell id="YZTxmnz4aFDgwLxgRaf_-24" style="edgeStyle=orthogonalEdgeStyle;rounded=0;orthogonalLoop=1;jettySize=auto;html=1;entryX=0.5;entryY=0;entryDx=0;entryDy=0;" parent="1" source="YZTxmnz4aFDgwLxgRaf_-11" target="YZTxmnz4aFDgwLxgRaf_-14" edge="1">
          <mxGeometry relative="1" as="geometry" />
        </mxCell>
        <mxCell id="YZTxmnz4aFDgwLxgRaf_-25" style="edgeStyle=orthogonalEdgeStyle;rounded=0;orthogonalLoop=1;jettySize=auto;html=1;entryX=0.5;entryY=0;entryDx=0;entryDy=0;" parent="1" source="YZTxmnz4aFDgwLxgRaf_-14" target="YZTxmnz4aFDgwLxgRaf_-17" edge="1">
          <mxGeometry relative="1" as="geometry" />
        </mxCell>
        <mxCell id="YZTxmnz4aFDgwLxgRaf_-26" style="edgeStyle=orthogonalEdgeStyle;rounded=0;orthogonalLoop=1;jettySize=auto;html=1;entryX=0.5;entryY=0;entryDx=0;entryDy=0;" parent="1" source="YZTxmnz4aFDgwLxgRaf_-17" target="YZTxmnz4aFDgwLxgRaf_-20" edge="1">
          <mxGeometry relative="1" as="geometry" />
        </mxCell>
        <mxCell id="YZTxmnz4aFDgwLxgRaf_-27" style="edgeStyle=orthogonalEdgeStyle;rounded=0;orthogonalLoop=1;jettySize=auto;html=1;entryX=0.5;entryY=0;entryDx=0;entryDy=0;entryPerimeter=0;" parent="1" source="YZTxmnz4aFDgwLxgRaf_-20" target="YZTxmnz4aFDgwLxgRaf_-22" edge="1">
          <mxGeometry relative="1" as="geometry" />
        </mxCell>
        <mxCell id="YZTxmnz4aFDgwLxgRaf_-28" value="Sistem Berbasis android yang dapat mendeteksi penyakit daun pada tanaman kentang" style="rounded=1;whiteSpace=wrap;html=1;absoluteArcSize=1;arcSize=14;strokeWidth=2;" parent="1" vertex="1">
          <mxGeometry x="360" y="180" width="210" height="80" as="geometry" />
        </mxCell>
        <mxCell id="YZTxmnz4aFDgwLxgRaf_-29" style="edgeStyle=orthogonalEdgeStyle;rounded=0;orthogonalLoop=1;jettySize=auto;html=1;entryX=0;entryY=0.5;entryDx=0;entryDy=0;" parent="1" source="YZTxmnz4aFDgwLxgRaf_-1" target="YZTxmnz4aFDgwLxgRaf_-28" edge="1">
          <mxGeometry relative="1" as="geometry" />
        </mxCell>
        <mxCell id="YZTxmnz4aFDgwLxgRaf_-30" value="Mengumpulkan data gambar penyakit daun pada tanaman kentang" style="rounded=1;whiteSpace=wrap;html=1;absoluteArcSize=1;arcSize=14;strokeWidth=2;" parent="1" vertex="1">
          <mxGeometry x="360" y="280" width="210" height="80" as="geometry" />
        </mxCell>
        <mxCell id="YZTxmnz4aFDgwLxgRaf_-31" style="edgeStyle=orthogonalEdgeStyle;rounded=0;orthogonalLoop=1;jettySize=auto;html=1;entryX=0;entryY=0.5;entryDx=0;entryDy=0;" parent="1" source="YZTxmnz4aFDgwLxgRaf_-7" target="YZTxmnz4aFDgwLxgRaf_-30" edge="1">
          <mxGeometry relative="1" as="geometry" />
        </mxCell>
        <mxCell id="YZTxmnz4aFDgwLxgRaf_-32" value="Melakukan augmentasi data" style="rounded=1;whiteSpace=wrap;html=1;absoluteArcSize=1;arcSize=14;strokeWidth=2;" parent="1" vertex="1">
          <mxGeometry x="360" y="390" width="210" height="80" as="geometry" />
        </mxCell>
        <mxCell id="YZTxmnz4aFDgwLxgRaf_-33" style="edgeStyle=orthogonalEdgeStyle;rounded=0;orthogonalLoop=1;jettySize=auto;html=1;entryX=0;entryY=0.5;entryDx=0;entryDy=0;" parent="1" source="YZTxmnz4aFDgwLxgRaf_-11" target="YZTxmnz4aFDgwLxgRaf_-32" edge="1">
          <mxGeometry relative="1" as="geometry" />
        </mxCell>
        <mxCell id="YZTxmnz4aFDgwLxgRaf_-34" value="Melakukan training data dengan algoritma &lt;i&gt;Convolutional Neural Network&lt;/i&gt;" style="rounded=1;whiteSpace=wrap;html=1;absoluteArcSize=1;arcSize=14;strokeWidth=2;" parent="1" vertex="1">
          <mxGeometry x="360" y="490" width="210" height="80" as="geometry" />
        </mxCell>
        <mxCell id="YZTxmnz4aFDgwLxgRaf_-35" value="Evaluasi akurasi dan &lt;i&gt;loss, &lt;/i&gt;evaluasi &lt;i&gt;confusion matrix&lt;/i&gt;" style="rounded=1;whiteSpace=wrap;html=1;absoluteArcSize=1;arcSize=14;strokeWidth=2;" parent="1" vertex="1">
          <mxGeometry x="360" y="590" width="210" height="80" as="geometry" />
        </mxCell>
        <mxCell id="YZTxmnz4aFDgwLxgRaf_-36" style="edgeStyle=orthogonalEdgeStyle;rounded=0;orthogonalLoop=1;jettySize=auto;html=1;entryX=0;entryY=0.5;entryDx=0;entryDy=0;" parent="1" source="YZTxmnz4aFDgwLxgRaf_-14" target="YZTxmnz4aFDgwLxgRaf_-34" edge="1">
          <mxGeometry relative="1" as="geometry" />
        </mxCell>
        <mxCell id="YZTxmnz4aFDgwLxgRaf_-37" style="edgeStyle=orthogonalEdgeStyle;rounded=0;orthogonalLoop=1;jettySize=auto;html=1;entryX=0;entryY=0.5;entryDx=0;entryDy=0;" parent="1" source="YZTxmnz4aFDgwLxgRaf_-17" target="YZTxmnz4aFDgwLxgRaf_-35" edge="1">
          <mxGeometry relative="1" as="geometry" />
        </mxCell>
        <mxCell id="YZTxmnz4aFDgwLxgRaf_-38" value="Deploy aplikasi mobile di &lt;i&gt;google playstore&amp;nbsp;&lt;/i&gt;" style="rounded=1;whiteSpace=wrap;html=1;absoluteArcSize=1;arcSize=14;strokeWidth=2;" parent="1" vertex="1">
          <mxGeometry x="360" y="690" width="210" height="80" as="geometry" />
        </mxCell>
        <mxCell id="YZTxmnz4aFDgwLxgRaf_-39" style="edgeStyle=orthogonalEdgeStyle;rounded=0;orthogonalLoop=1;jettySize=auto;html=1;entryX=0;entryY=0.5;entryDx=0;entryDy=0;" parent="1" source="YZTxmnz4aFDgwLxgRaf_-20" target="YZTxmnz4aFDgwLxgRaf_-38" edge="1">
          <mxGeometry relative="1" as="geometry" />
        </mxCell>
        <mxCell id="2z4LmBoJyrhAEBnB_F2--1" value="" style="group" vertex="1" connectable="0" parent="1">
          <mxGeometry x="160" y="80" width="160" height="80" as="geometry" />
        </mxCell>
        <mxCell id="2z4LmBoJyrhAEBnB_F2--2" value="&lt;p style=&quot;line-height: 0%;&quot;&gt;&lt;br&gt;&lt;/p&gt;" style="verticalLabelPosition=bottom;verticalAlign=top;html=1;shape=process;whiteSpace=wrap;rounded=1;size=0.14;arcSize=6;align=center;" vertex="1" parent="2z4LmBoJyrhAEBnB_F2--1">
          <mxGeometry width="160" height="80" as="geometry" />
        </mxCell>
        <mxCell id="2z4LmBoJyrhAEBnB_F2--3" value="Studi Literartur" style="text;html=1;align=center;verticalAlign=middle;resizable=0;points=[];autosize=1;strokeColor=none;fillColor=none;" vertex="1" parent="2z4LmBoJyrhAEBnB_F2--1">
          <mxGeometry x="30" y="25" width="100" height="30" as="geometry" />
        </mxCell>
        <mxCell id="2z4LmBoJyrhAEBnB_F2--4" value="Jurnal dan penelitian terdahulu" style="rounded=1;whiteSpace=wrap;html=1;absoluteArcSize=1;arcSize=14;strokeWidth=2;" vertex="1" parent="1">
          <mxGeometry x="360" y="80" width="210" height="80" as="geometry" />
        </mxCell>
        <mxCell id="2z4LmBoJyrhAEBnB_F2--5" style="edgeStyle=orthogonalEdgeStyle;rounded=0;orthogonalLoop=1;jettySize=auto;html=1;entryX=0;entryY=0.5;entryDx=0;entryDy=0;" edge="1" parent="1" source="2z4LmBoJyrhAEBnB_F2--2" target="2z4LmBoJyrhAEBnB_F2--4">
          <mxGeometry relative="1" as="geometry" />
        </mxCell>
      </root>
    </mxGraphModel>
  </diagram>
</mxfile>
